# xmcd
# 
# Track frame offsets:
#     150
#     11445
#     25008
#     38775
#     58318
#     72128
#     89850
#     103535
#     117323
#     133385
#     153163
#     167830
#     177685
#     189455
#     201443
#     211263
# 
# Disc length: 2968
# 
# Revision: 4
# Processed by: cddbd v1.5.2PL0 Copyright (c) Steve Scherf et al.
# Submitted via: fre:ac v1.0.17
# 
DISCID=ea0b9610
DTITLE=Various Artist - Play Me The Blues...the Legendary Blues Singers Volume 3
DYEAR=0
DGENRE=Blues
TTITLE0=John Lee Hooker - Boom Boom
TTITLE1=Jonny Guitar Watson - Someone Cares For Me
TTITLE2=Muddy Waters - I'm Ready
TTITLE3=Sonny Boy Williamson - I'm Gonna Put You Down
TTITLE4=Little Walter - You're So Fine
TTITLE5=Mike Bloomfield - Linda Lou
TTITLE6=Leadbelly - Medley - Look, Looky Yonder Black Betty
TTITLE7=B.B.King - Paying The Cost To Be The Boss
TTITLE8=Howlin' Wolf - Blue Bird
TTITLE9=John Mayall - Road Show
TTITLE10=Memphis Slim - I'm Crying
TTITLE11=John Lee Hooker - I Wanna Walk
TTITLE12=Muddy Waters - Goin' Home
TTITLE13=Elmore James - Pickin' The Blues
TTITLE14=Alice Cooper - Goin' To The River
TTITLE15=Big Joe Williams - Bye, Bye Baby Blues
EXTD=
EXTT0=John Lee Hooker
EXTT1=Johnny Guitar Watson
EXTT2=Muddy Waters
EXTT3=Sonny Boy Williamson
EXTT4=Little Walter
EXTT5=Mike Bloomfield
EXTT6=Leadbelly
EXTT7=B.B.King
EXTT8=Howlin' Wolf
EXTT9=John Mayall
EXTT10=Memphis Slim
EXTT11=John Lee Hooker
EXTT12=Muddy Waters
EXTT13=Elmore James
EXTT14=Alice Cooper
EXTT15=Big Joe Williams
PLAYORDER=
